# xmcd
#
# Track frame offsets: 
#        150
#        11663
#        22685
#        34334
#        44741
#        57461
#        70544
#        83711
#        94232
#        107416
#        120243
#        132862
#        144621
#        156495
#        169138
#        181105
#        192583
#        203909
#        216133
#        230842
#        244155
#        256296
#        269426
#        281462
#        292223
#        304220
#        313857
#        326932
#        337569
#        349936
#
# Disc length: 4833 seconds
#
# Revision: 1
# Processed by: cddbd v1.5.2PL0 Copyright (c) Steve Scherf et al.
# Submitted via: ExactAudioCopyFreeDBPlugin 1.0
#
DISCID=c812df1e
DTITLE=B.B. King - Complete Recordings 1949-1962 [Enlightenment Record
DTITLE=s]
DYEAR=2015
DGENRE=Blues
TTITLE0=The Key to My Kingdom
TTITLE1=You Don't Know
TTITLE2=Early in the Morning
TTITLE3=That Ain't the Way to Do It
TTITLE4=I Want to Get Married
TTITLE5=When My Heart Beats Like a Hammer
TTITLE6=Troubles, Troubles, Troubles
TTITLE7=Don't You Want a Man Like Me
TTITLE8=I Need You So Bad
TTITLE9=Why Does Everything Happen to Me?
TTITLE10=Boogie Woogie Woman
TTITLE11=Ruby Lee
TTITLE12=You Know I Go for You
TTITLE13=What Can I Do?
TTITLE14=You've Been an Angel
TTITLE15=Please Accept My Love
TTITLE16=Mean Old Frisco
TTITLE17=Don't Look Now, But I've Got the Blues
TTITLE18=Past Day
TTITLE19=Tomorrow is Another Day
TTITLE20=Fool
TTITLE21=I Love You So
TTITLE22=We Can't Make It
TTITLE23=Treat Me Right
TTITLE24=The Woman I Love
TTITLE25=Time to Say Goodbye
TTITLE26=Sweet Thing
TTITLE27=I've Got Papers on You Baby
TTITLE28=Sugar Mama
TTITLE29=A Lonely Lover's Plea
EXTD=
EXTT0=
EXTT1=
EXTT2=
EXTT3=
EXTT4=
EXTT5=
EXTT6=
EXTT7=
EXTT8=
EXTT9=
EXTT10=
EXTT11=
EXTT12=
EXTT13=
EXTT14=
EXTT15=
EXTT16=
EXTT17=
EXTT18=
EXTT19=
EXTT20=
EXTT21=
EXTT22=
EXTT23=
EXTT24=
EXTT25=
EXTT26=
EXTT27=
EXTT28=
EXTT29=
PLAYORDER=
